<!--?xml version="1.0" encoding="utf-8"?-->
<!-- Generator: Adobe Illustrator 18.1.1, SVG Export Plug-In . SVG Version: 6.00 Build 0)  -->

<svg version="1.1" id="_x31_0" xmlns="http://www.w3.org/2000/svg" xmlns:xlink="http://www.w3.org/1999/xlink" x="0px" y="0px" viewBox="0 0 512 512" style="width: 32px; height: 32px; opacity: 1;" xml:space="preserve">
<style type="text/css">
	.st0{fill:#374149;}
</style>
<g>
	<path class="st0" d="M459.871,8.9L116.305,37.224v329.406c-9.89-3.543-20.722-5.508-32.082-5.508
		C37.707,361.123,0,393.869,0,434.26C0,474.654,37.707,507.4,84.222,507.4c46.512,0,84.219-32.746,84.219-73.141V213.705
		l291.43-24.023v118.59c-9.894-3.543-20.726-5.508-32.09-5.508c-46.516,0-84.223,32.742-84.223,73.137s37.707,73.137,84.223,73.137
		c46.511,0,84.218-32.742,84.218-73.137V185.396v-52.32V80.49V4.6L459.871,8.9z M459.871,137.361l-291.43,24.035v-52.586
		l291.43-24.02V137.361z" style="fill: rgb(255, 255, 255);"></path>
</g>
</svg>
